<svg width="537" height="170" viewBox="0 0 537 170" fill="none" xmlns="http://www.w3.org/2000/svg">
<path d="M519.771 130.817C519.205 130.074 518.26 129.494 517.41 129.103C514.091 127.551 509.963 127.417 506.374 127.241C493.341 126.621 480.119 128.01 467.261 130.047C454.511 132.071 441.357 134.729 429.471 139.977C430.941 130.466 432.115 120.9 432.965 111.321C433.221 108.447 433.451 105.573 433.653 102.7C433.734 101.539 427.987 103.55 427.487 104.008C421.875 109.243 415.682 113.763 408.936 117.419C408.72 117.541 408.504 117.649 408.275 117.77C408.046 117.716 407.83 117.662 407.6 117.608C407.007 117.406 406.4 117.068 405.941 116.623C405.091 115.814 404.7 114.626 404.551 113.48C404.214 110.768 405.131 108.002 406.211 105.56C406.642 104.589 403.958 105.101 403.647 105.169C402.689 105.371 400.301 105.83 399.829 106.909C399.789 107.017 399.735 107.125 399.694 107.233C381.237 105.182 362.457 107.503 344.985 113.776C336.58 116.799 328.66 121.183 320.079 123.693C316.045 124.88 311.404 126.013 307.154 125.406C303.322 124.853 300.826 122.02 300.314 118.242C299.788 114.424 301.879 110.862 304.82 108.569C306.345 107.381 308.476 106.005 310.514 106.288C311.876 106.477 313.994 108.069 313.495 109.675C312.281 113.601 318.366 112.427 319.229 109.648C320.7 104.872 316.882 100.959 312.119 100.973C307.073 100.986 301.946 104.386 298.722 108.056C298.681 108.11 298.641 108.164 298.6 108.218C297.683 107.287 296.657 106.572 295.983 106.761C278.282 111.483 259.933 113.628 241.624 113.007C241.085 112.994 240.545 112.967 240.005 112.94C238.913 110.134 236.835 107.692 234.447 105.803C231.168 103.226 226.676 101.458 222.655 103.415C216.84 106.261 222.21 112.805 225.691 115.004C227.971 116.448 230.521 116.785 233.152 117.055C233.745 117.122 234.339 117.163 234.946 117.217C234.636 118.013 234.244 118.782 233.799 119.47C232.747 121.129 231.33 122.587 229.671 123.652C228.659 124.3 227.566 124.799 226.406 125.069C225.218 125.339 224.234 125.163 223.073 125.136L222.79 125.042C222.507 124.246 222.223 123.477 222.034 122.641C221.643 120.806 221.616 118.89 221.63 117.014C221.63 115.53 218.297 111.847 216.692 112.589C205.372 117.851 193.445 121.777 181.208 124.246C175.69 125.366 170.131 126.027 164.546 126.755C162.428 127.039 160.282 127.309 158.137 127.282C157.975 127.282 157.827 127.268 157.679 127.255C158.299 121.966 163.372 116.434 159.77 111.429C157.004 107.57 152.484 106.464 147.964 106.288C143.296 106.113 138.642 107.192 134.297 108.798C126.904 111.537 120.063 115.733 113.871 120.698C114.586 118.391 115.152 116.016 115.193 113.642C115.247 109.81 112.818 106.248 109.418 104.508C107.408 103.482 105.088 103.927 103.037 104.615C98.0313 106.315 93.7004 109.675 89.8688 113.223C88.8299 114.181 93.5251 119.011 94.6988 117.932C98.4226 114.491 102.699 111.024 107.61 109.459C108.42 109.203 109.283 108.973 110.147 108.879C110.403 112.157 109.081 115.787 108.083 118.795C106.99 122.101 105.398 125.474 104.953 128.941C104.804 130.128 108.771 134.5 109.891 133.366C117.325 125.811 126.04 119.146 135.781 114.856C140.193 112.913 144.969 111.483 149.799 111.24C151.85 111.132 153.914 111.24 155.925 111.699C155.439 117.338 149.894 123.396 154.333 128.55C157.611 132.355 161.874 132.503 166.529 131.99C171.737 131.424 176.945 130.763 182.099 129.845C194.133 127.673 205.885 124.098 217.11 119.268C217.555 121.264 218.324 123.167 219.633 124.88C222.992 129.305 228.025 131.64 233.26 129.049C237.334 127.039 240.275 122.721 240.72 118.202C240.734 118.026 240.734 117.851 240.747 117.689C241.179 117.716 241.597 117.756 242.029 117.77C248.087 118.094 254.158 118.121 260.216 117.864C272.116 117.338 283.935 115.652 295.511 112.886C294.391 115.288 293.838 117.918 294.161 120.684C294.688 125.136 297.629 128.86 301.919 130.196C306.682 131.68 312.362 130.641 317.084 129.467C322.278 128.172 327.27 126.162 332.181 124.057C336.998 121.979 341.774 119.834 346.725 118.094C351.785 116.326 356.993 114.964 362.241 113.925C374.006 111.618 386.095 111.24 397.994 112.616C397.805 113.979 397.832 115.355 398.251 116.61C399.64 120.873 404.821 120.684 408.356 119.686C413.092 118.337 417.611 115.247 421.645 112.495C423.386 111.307 425.086 110.053 426.745 108.757C426.057 117.527 425.126 126.27 423.912 134.986C423.521 137.805 423.102 140.612 422.657 143.431C421.956 143.863 421.254 144.295 420.566 144.754C416.896 147.142 412.849 149.03 409.557 151.958C406.211 154.926 403.337 159.541 404.187 164.182C405.118 169.322 409.854 170.752 414.427 169.673C419.257 168.54 422.482 165.504 424.425 161.011C426.529 156.181 427.568 150.973 428.445 145.806C428.634 144.686 428.796 143.566 428.985 142.446C429.228 142.312 429.471 142.163 429.727 142.028C431.319 141.192 433.599 140.207 435.367 139.546C438.051 138.52 439.697 137.994 442.342 137.225C447.914 135.593 453.338 134.392 459.26 133.312C470.715 131.208 482.412 129.872 494.069 129.656C498.616 129.575 503.257 129.589 507.764 130.385C508.87 130.574 509.801 130.763 510.759 131.154C509.113 131.68 507.561 132.53 507.79 132.975C508.465 134.324 509.868 135.782 511.352 136.254C513.551 136.955 516.884 135.889 518.678 134.581C519.866 133.704 520.729 132.166 519.704 130.817H519.771ZM111.833 108.919C112.036 108.987 112.09 109.122 111.833 108.919V108.919ZM109.85 107.287C109.85 107.287 109.85 107.273 109.85 107.26C109.85 107.26 109.85 107.273 109.85 107.287ZM155.965 110.161C155.857 109.931 155.938 109.85 155.965 110.161V110.161ZM222.884 125.285C223.127 125.852 223.181 125.352 222.884 125.285V125.285ZM227.714 112.009C226.878 111.915 225.987 111.577 225.164 111.469C225.137 111.307 225.097 111.132 225.111 111.011C225.205 109.135 227.242 108.042 228.861 107.692C230.939 107.233 234.204 107.503 235.148 109.594C235.594 110.579 235.783 111.645 235.809 112.737C233.111 112.576 230.413 112.346 227.728 112.022L227.714 112.009ZM414.576 167.663C413.645 168.405 414.036 167.959 414.576 167.663V167.663ZM415.196 167.447C415.331 167.447 415.466 167.474 415.547 167.582C415.507 167.541 415.372 167.487 415.196 167.447ZM417.692 163.345C416.991 164.789 416.087 166.273 414.872 167.366C414.63 167.312 414.4 167.271 414.306 167.231C413.28 166.786 412.43 166.03 411.823 165.099C409.341 161.254 411.068 156.302 413.712 153.037C415.965 150.258 419.163 148.477 422.212 146.683C422.037 147.708 421.888 148.747 421.699 149.772C420.849 154.387 419.757 159.095 417.692 163.345Z" fill="white"/>
<path d="M13.1815 22.5313L4.49277 31.328V42.4991H0V0H4.49277V25.6884L29.4526 0H34.6064L16.2171 19.2393L35.8882 42.4991H30.5454L13.1815 22.5313Z" fill="white"/>
<path d="M159.797 0.0134277L145.468 42.5126H140.733L128.28 6.26013L115.773 42.5126H111.105L96.7766 0.0134277H101.391L113.655 36.5627L126.351 0.0134277H130.533L143.04 36.7381L155.479 0.0134277H159.797Z" fill="white"/>
<path d="M228.699 0.0134277H233.192V42.5126H228.699V0.0134277Z" fill="white"/>
<path d="M334.408 31.1525H310.729L305.63 42.5126H300.961L320.39 0.0134277H324.828L344.257 42.5126H339.521L334.421 31.1525H334.408ZM332.775 27.5097L322.575 4.68162L312.375 27.5097H332.775Z" fill="white"/>
<path d="M418.138 3.89907H403.202V0.0134277H437.566V3.89907H422.63V42.5126H418.138V3.89907Z" fill="white"/>
<path d="M519.704 27.82V42.5126H515.265V27.82L498.265 0.0134277H503.055L517.626 23.8669L532.197 0.0134277H536.69L519.69 27.82H519.704Z" fill="white"/>
</svg>
