<svg id="Warstwa_2" xmlns="http://www.w3.org/2000/svg" viewBox="0 0 35.63 35.63" fill="#fff">
    <g id="Isolation_Mode">
        <g>
            <path d="M27.24,6.36c-1.15,0-2.09,.94-2.09,2.09s.94,2.09,2.09,2.09,2.09-.94,2.09-2.09-.94-2.09-2.09-2.09Z"/>
            <path d="M17.96,9.04c-4.84,0-8.77,3.94-8.77,8.77s3.94,8.77,8.77,8.77,8.77-3.94,8.77-8.77-3.94-8.77-8.77-8.77Zm0,14.39c-3.1,0-5.62-2.52-5.62-5.62s2.52-5.62,5.62-5.62,5.62,2.52,5.62,5.62-2.52,5.62-5.62,5.62Z"/>
            <path d="M24.92,35.63H10.7c-5.9,0-10.7-4.8-10.7-10.7V10.7C0,4.8,4.8,0,10.7,0h14.22c5.9,0,10.7,4.8,10.7,10.7v14.22c0,5.9-4.8,10.7-10.7,10.7ZM10.7,3.35c-4.05,0-7.35,3.3-7.35,7.35v14.22c0,4.05,3.3,7.35,7.35,7.35h14.22c4.05,0,7.35-3.3,7.35-7.35V10.7c0-4.05-3.3-7.35-7.35-7.35H10.7Z"/>
        </g>
    </g>
</svg>