<svg xmlns="http://www.w3.org/2000/svg" viewBox="0 0 629.73 382.7">
	<path d="M735,177.36c0-.26.23-0.51,0.23-0.78V148L735,146.51c-8-23.68-26-38.93-46.4-38.93H151c-22.73,0-45.51,14.12-45.51,37.88V450.39c0,23.8,23.18,39.88,45.51,39.88H688.65c22.68,0,38.77-18,46.14-33.38l0.42-2.07V180.28A9.87,9.87,0,0,0,735,177.36Zm-18.91,2.15c0,0.25-.23.51-0.23,0.78v269.9c0,2.18-2.05,4.32-3.62,6.36l-200.87-192L706,135.32c0.09-.06-0.14-0.17-0.06-0.22,4.2,4.1,9.94,9.59,9.94,16.23v25.26A9.89,9.89,0,0,0,716.07,179.51ZM156.54,127.2H683.11l-251.45,167a21.59,21.59,0,0,1-23.59.07Zm-31.67,18.26c0-5,2.57-9.14,6.9-12.29a8.81,8.81,0,0,0,2,2.15L331.53,266.77,127.87,459.41a14.78,14.78,0,0,1-3-9V145.46ZM151,470.65a29.72,29.72,0,0,1-6.16-.79l203.27-192,49.38,32.8a40.89,40.89,0,0,0,44.73,0l52.74-35L697.41,468.88a24,24,0,0,1-8.76,1.77H151Z" transform="translate(-105.49 -107.57)"/>
</svg>