<svg xmlns="http://www.w3.org/2000/svg" viewBox="0 0 248.1 352.31">
	<path d="M420.48,206.76A39.63,39.63,0,1,0,460,246.4,39.6,39.6,0,0,0,420.48,206.76Zm0,67.95a28.31,28.31,0,1,1,28.2-28.31A28.29,28.29,0,0,1,420.48,274.7Zm0-152.86c-68.4,0-124,57.74-124,128.71,0,71.14,74.22,174,106.13,214.91a22.5,22.5,0,0,0,35.49,0c32.12-40.93,106.79-143.81,106.48-215C544.23,179.57,488.58,121.84,420.48,121.84Zm8.72,336.66c-4.33,5.51-13.46,5.5-17.76,0-31.19-40-103.73-140.33-103.73-207.93,0-64.73,50.59-117.39,112.77-117.39,61.9,0,112.5,52.68,112.77,117.42C533.55,318.19,460.59,418.51,429.2,458.51Z" transform="translate(-296.43 -121.84)"/>
</svg>