<svg width="531" height="75" viewBox="0 0 531 75" fill="none" xmlns="http://www.w3.org/2000/svg">
<g clip-path="url(#clip0_1_37)">
<path d="M0.151646 67.9206C-0.0218423 67.7471 -0.0773587 67.407 0.151646 67.0669L3.12177 63.9298C3.40629 63.5897 3.74633 63.6452 4.03779 63.8742C7.45899 67.2959 11.6297 69.5239 17.105 69.5239C22.2402 69.5239 26.3484 67.0669 26.3484 63.0761C26.3484 53.9423 1.01215 55.372 1.01215 41.8448C1.01215 34.4808 7.80596 30.372 16.1334 30.372C22.4692 30.372 27.3755 32.94 31.0257 35.9661C31.3657 36.2507 31.3657 36.6532 31.1992 36.8198L28.2915 40.186C28.0625 40.415 27.7225 40.4706 27.3755 40.186C24.5788 37.729 20.6441 35.7926 16.0779 35.7926C10.9982 35.7926 7.06343 38.0761 7.06343 41.4423C7.06343 50.2915 32.4622 49.0353 32.4622 62.5625C32.4622 70.6136 25.5018 75.0069 16.9939 75.0069C9.9711 75.0069 4.2668 72.0988 0.158586 67.9275L0.151646 67.9206Z" fill="white"/>
<path d="M44.1553 73.4037V31.8504C44.1553 31.5103 44.3843 31.2812 44.7243 31.2812H61.2751C65.2723 31.2812 67.4374 31.2257 68.749 31.2257C69.0891 31.2257 69.3181 31.5103 69.3181 31.7948V36.2438C69.3181 36.5838 69.0891 36.8684 68.749 36.8684C67.4374 36.8684 65.2654 36.8129 61.2751 36.8129H50.4286C50.1996 36.8129 50.0886 36.8684 50.0886 37.0974V45.1485H61.2751C65.2723 45.1485 67.493 45.093 68.749 45.093C69.0891 45.093 69.3181 45.3776 69.3181 45.6621V50.111C69.3181 50.4511 69.0891 50.7357 68.749 50.7357C67.4374 50.7357 65.2654 50.6802 61.2751 50.6802H50.0886V68.1496C50.0886 68.3787 50.1996 68.5522 50.4286 68.5522H64.9253C68.978 68.5522 71.2056 68.4967 72.4617 68.4967C72.8642 68.4967 73.0862 68.7812 73.0862 69.1213V73.5772C73.0862 73.8617 72.8572 74.1463 72.4617 74.1463C71.1501 74.1463 68.978 74.0908 64.8698 74.0908H44.7798C44.3773 74.0908 44.1553 73.8062 44.1553 73.4037Z" fill="white"/>
<path d="M79.3666 52.6235C79.3666 40.3526 89.4081 30.3026 101.851 30.3026C111.379 30.3026 119.255 36.2993 122.399 43.6563C122.572 44.0589 122.399 44.3434 122.114 44.4545L118.061 46.3978C117.777 46.5089 117.319 46.4534 117.145 46.0577C114.918 40.2346 109.096 35.7232 101.851 35.7232C92.7182 35.7232 85.2999 43.3717 85.2999 52.6166V52.6721C85.2999 61.9795 92.7182 69.5655 101.851 69.5655C109.443 69.5655 115.202 64.7696 117.603 58.7174C117.777 58.3148 118.172 58.2593 118.457 58.3773L122.565 60.2582C122.905 60.4317 123.023 60.7163 122.905 61.1119C119.422 69.045 111.774 74.9792 101.844 74.9792C89.4011 74.9792 79.3596 64.9362 79.3596 52.6027L79.3666 52.6235Z" fill="white"/>
<path d="M133.245 73.5147C133.245 72.2029 133.301 70.3151 133.301 67.1224V31.8434C133.301 31.5033 133.53 31.2743 133.87 31.2743H147.735C158.234 31.2743 166.166 38.2982 166.166 48.3967C166.166 56.6699 161.427 62.6111 154.182 64.7765C156.465 66.8309 157.894 69.2879 161.829 69.2879C162.683 69.2879 163.488 69.1768 164.57 68.7188C164.973 68.6077 165.257 68.7188 165.368 69.1213L166.34 73.0011C166.451 73.4592 166.284 73.7438 165.937 73.8548C164.168 74.5974 162.856 74.771 161.545 74.771C152.412 74.771 151.441 66.4353 143.967 66.4353H139.227V67.636C139.227 70.6066 139.283 72.2029 139.283 73.5147C139.283 73.7993 138.998 74.0838 138.714 74.0838H133.807C133.467 74.0838 133.238 73.8548 133.238 73.5147H133.245ZM147.055 60.9037C154.591 60.9037 160.296 55.8787 160.296 48.4037C160.296 40.9286 154.647 36.8198 147.624 36.8198H139.519C139.29 36.8198 139.234 36.9933 139.234 37.1599V60.9037H147.055Z" fill="white"/>
<path d="M178.734 73.4037V31.8504C178.734 31.5103 178.963 31.2812 179.303 31.2812H195.854C199.851 31.2812 202.016 31.2257 203.328 31.2257C203.668 31.2257 203.897 31.5103 203.897 31.7948V36.2438C203.897 36.5838 203.668 36.8684 203.328 36.8684C202.016 36.8684 199.844 36.8129 195.854 36.8129H185.007C184.778 36.8129 184.667 36.8684 184.667 37.0974V45.1485H195.854C199.851 45.1485 202.072 45.093 203.328 45.093C203.668 45.093 203.897 45.3776 203.897 45.6621V50.111C203.897 50.4511 203.668 50.7357 203.328 50.7357C202.016 50.7357 199.844 50.6802 195.854 50.6802H184.667V68.1496C184.667 68.3787 184.778 68.5522 185.007 68.5522H199.504C203.557 68.5522 205.784 68.4967 207.04 68.4967C207.443 68.4967 207.665 68.7812 207.665 69.1213V73.5772C207.665 73.8617 207.436 74.1463 207.04 74.1463C205.729 74.1463 203.557 74.0908 199.448 74.0908H179.358C178.956 74.0908 178.734 73.8062 178.734 73.4037Z" fill="white"/>
<path d="M227.533 73.5147C227.533 72.314 227.588 70.3151 227.588 66.0952V36.9864C227.588 36.8129 227.13 36.8129 226.735 36.8129H220.114C215.951 36.8129 213.834 36.8684 212.696 36.8684C212.293 36.8684 212.071 36.5838 212.071 36.2993V31.7879C212.071 31.5033 212.3 31.2188 212.696 31.2188C213.841 31.2188 215.951 31.2743 220.059 31.2743H241.12C245.284 31.2743 247.338 31.2188 248.539 31.2188C248.879 31.2188 249.108 31.5033 249.108 31.7879V36.2993C249.108 36.5838 248.879 36.8684 248.539 36.8684C247.338 36.8684 245.284 36.8129 241.065 36.8129H234.389C234.049 36.8129 233.535 36.8129 233.535 36.9864V66.1577C233.535 70.322 233.591 72.3765 233.591 73.5217C233.591 73.8062 233.362 74.0908 233.022 74.0908H228.116C227.831 74.0908 227.547 73.8617 227.547 73.5217L227.533 73.5147Z" fill="white"/>
<path d="M300.016 52.6235C300.016 40.3526 310.058 30.3026 322.5 30.3026C332.035 30.3026 339.905 36.2993 343.104 43.6563C343.222 44.0589 343.104 44.3434 342.764 44.4545L338.711 46.3978C338.427 46.5089 337.969 46.4534 337.858 46.0577C335.574 40.2346 329.752 35.7232 322.507 35.7232C313.375 35.7232 305.957 43.3717 305.957 52.6166V52.6721C305.957 61.9795 313.264 69.5655 322.507 69.5655C328.788 69.5655 333.583 66.1993 336.317 61.2299C336.72 60.5983 336.775 60.0292 336.317 60.0292H325.47C325.13 60.0292 324.901 59.8001 324.901 59.46V55.4067C324.901 55.0666 325.13 54.8376 325.47 54.8376C327.525 54.8376 329.981 54.8931 333.007 54.8931H342.597C343.964 54.8931 344.769 55.6913 344.422 57.3501C342.313 67.053 333.805 74.9861 322.507 74.9861C310.065 74.9861 300.023 64.9431 300.023 52.6097L300.016 52.6235Z" fill="white"/>
<path d="M371.188 32.0169L388.766 68.1496C390.022 70.8357 390.765 72.2029 391.278 73.2857C391.452 73.6258 391.334 74.0838 390.765 74.0838H385.345C384.887 74.0838 384.602 73.7438 384.429 73.4592C383.86 72.2029 383.117 70.6621 381.806 67.8651L381.063 66.3243H357.948L357.261 67.8096C356.116 70.322 355.262 72.2029 354.637 73.4592C354.526 73.7438 354.179 74.0838 353.721 74.0838H348.815C348.302 74.0838 348.128 73.6258 348.302 73.2857C348.933 72.1474 349.787 70.4331 350.925 68.0317L368.392 32.0169C368.787 31.1632 369.245 30.9342 369.759 30.9342C370.272 30.9342 370.73 31.2188 371.188 32.0169ZM378.551 61.0147L369.537 41.9489L360.522 61.0147H378.558H378.551Z" fill="white"/>
<path d="M423.242 60.8412L412.284 42.8581L404.526 65.6927C403.325 69.3434 402.583 71.5714 401.958 73.5147C401.785 73.8548 401.5 74.2018 401.105 74.2018H396.254C395.796 74.2018 395.567 73.7438 395.74 73.3481C396.427 71.2937 397.17 69.1838 398.481 65.3595L409.779 32.0794C410.064 31.2812 410.522 30.9411 411.146 30.9411C411.771 30.9411 412.118 31.2812 412.576 32.0239L424.678 51.9434L437.003 31.9684C437.405 31.2812 437.801 30.9411 438.432 30.9411C439.001 30.9411 439.459 31.2812 439.744 32.0239L450.931 64.9014C452.298 68.8992 453.103 71.1202 453.901 73.2926C454.012 73.7507 453.783 74.2088 453.387 74.2088H448.481C448.078 74.2088 447.738 73.9242 447.627 73.4661C446.885 71.3562 446.198 69.1283 444.831 65.1305L437.239 42.754L426.17 60.8481C425.768 61.5353 425.372 61.9309 424.741 61.9309C424.172 61.9309 423.714 61.5283 423.256 60.8481L423.242 60.8412Z" fill="white"/>
<path d="M461.826 73.4037V31.8504C461.826 31.5103 462.055 31.2812 462.395 31.2812H478.946C482.943 31.2812 485.108 31.2257 486.419 31.2257C486.759 31.2257 486.988 31.5103 486.988 31.7948V36.2438C486.988 36.5838 486.759 36.8684 486.419 36.8684C485.108 36.8684 482.936 36.8129 478.946 36.8129H468.099C467.87 36.8129 467.759 36.8684 467.759 37.0974V45.1485H478.946C482.943 45.1485 485.163 45.093 486.419 45.093C486.759 45.093 486.988 45.3776 486.988 45.6621V50.111C486.988 50.4511 486.759 50.7357 486.419 50.7357C485.108 50.7357 482.936 50.6802 478.946 50.6802H467.759V68.1496C467.759 68.3787 467.87 68.5522 468.099 68.5522H482.596C486.648 68.5522 488.876 68.4967 490.125 68.4967C490.528 68.4967 490.757 68.7812 490.757 69.1213V73.5772C490.757 73.8617 490.528 74.1463 490.125 74.1463C488.814 74.1463 486.641 74.0908 482.533 74.0908H462.443C462.041 74.0908 461.812 73.8062 461.812 73.4037H461.826Z" fill="white"/>
<path d="M498.695 67.9206C498.522 67.7471 498.466 67.407 498.695 67.0669L501.666 63.9298C501.95 63.5897 502.297 63.6452 502.582 63.8742C506.003 67.2959 510.173 69.5239 515.649 69.5239C520.784 69.5239 524.892 67.0669 524.892 63.0761C524.892 53.9423 499.556 55.372 499.556 41.8448C499.556 34.4808 506.35 30.372 514.677 30.372C521.013 30.372 525.919 32.94 529.576 35.9661C529.916 36.2507 529.916 36.6532 529.75 36.8198L526.842 40.186C526.613 40.415 526.273 40.4706 525.933 40.186C523.137 37.729 519.202 35.7926 514.636 35.7926C509.556 35.7926 505.621 38.0761 505.621 41.4423C505.621 50.2915 531.02 49.0353 531.02 62.5625C531.02 70.6136 524.059 75.0069 515.552 75.0069C508.529 75.0069 502.824 72.0988 498.716 67.9275L498.695 67.9206Z" fill="white"/>
<path d="M285.478 42.4695C285.478 35.9384 280.183 30.6496 273.66 30.6496C267.137 30.6496 261.842 35.9453 261.842 42.4695C261.842 47.2099 264.632 51.284 268.656 53.1649L266.193 74.0838H281.134L278.67 53.1649C282.695 51.2771 285.485 47.2029 285.485 42.4695H285.478Z" fill="white"/>
<path d="M101.499 17.2335H100V3.78956H101.499V10.05L108.362 3.78956H110.43L102.977 10.4317L110.631 17.2335H108.508L101.506 10.8759V17.2335H101.499Z" fill="white"/>
<path d="M132.907 10.5081C132.907 14.5544 130.014 17.4348 125.919 17.4348C121.825 17.4348 118.952 14.5614 118.952 10.5081C118.952 6.45475 121.846 3.58134 125.919 3.58134C129.993 3.58134 132.907 6.45475 132.907 10.5081ZM120.479 10.5081C120.479 13.7909 122.706 16.0744 125.926 16.0744C129.146 16.0744 131.395 13.784 131.395 10.5081C131.395 7.23209 129.146 4.9417 125.926 4.9417C122.706 4.9417 120.479 7.23209 120.479 10.5081Z" fill="white"/>
<path d="M143.421 17.2335V3.78956H144.92V15.8801H152.9V17.2335H143.428H143.421Z" fill="white"/>
<path d="M171.429 11.1188H164.649V15.8801H172.886V17.2335H163.15V3.78956H172.886V5.14992H164.649V9.76541H171.429V11.1258V11.1188Z" fill="white"/>
<path d="M185.141 17.2335H183.642V3.78956H185.141V10.05L192.004 3.78956H194.072L186.619 10.4317L194.274 17.2335H192.15L185.148 10.8759V17.2335H185.141Z" fill="white"/>
<path d="M214.121 4.98334V6.68379H214.038C213.045 5.53165 211.505 4.9417 209.742 4.9417C206.362 4.9417 204.114 7.21127 204.114 10.5081C204.114 13.8048 206.362 16.0744 209.742 16.0744C211.484 16.0744 213.024 15.5053 214.038 14.3323H214.121V16.0328C213.045 16.9212 211.512 17.4278 209.686 17.4278C205.474 17.4278 202.601 14.5544 202.601 10.5011C202.601 6.44781 205.474 3.5744 209.686 3.5744C211.588 3.5744 213.045 4.03942 214.121 4.96946V4.98334Z" fill="white"/>
<path d="M232.184 12.8193C232.184 15.776 230.547 17.4348 227.611 17.4348C226.071 17.4348 224.738 16.9697 223.767 16.0744V14.4364H223.85C224.662 15.4706 225.994 16.0744 227.472 16.0744C229.561 16.0744 230.692 14.9014 230.692 12.6943V3.78956H232.191V12.8193H232.184Z" fill="white"/>
<path d="M252.156 14.2143H244.238L242.864 17.2335H241.282L247.521 3.78956H248.936L255.175 17.2335H253.537L252.163 14.2143H252.156ZM248.187 5.52471L244.849 12.854H251.553L248.236 5.52471H248.194H248.187Z" fill="white"/>
<path d="M285.896 10.3692C287.493 10.7718 288.346 11.8268 288.346 13.5688C288.346 15.9564 286.785 17.2335 283.773 17.2335H277.86V3.78956H283.266C286.306 3.78956 287.86 5.02499 287.86 7.35702C287.86 8.87701 287.194 9.8487 285.896 10.3345V10.3762V10.3692ZM283.162 9.74459C285.307 9.74459 286.382 8.95336 286.382 7.43337C286.382 5.91338 285.307 5.14298 283.246 5.14298H279.359V9.73765H283.169L283.162 9.74459ZM283.731 15.8801C285.799 15.8801 286.826 15.0888 286.826 13.5133C286.826 11.9378 285.772 11.1049 283.648 11.1049H279.352V15.887H283.724L283.731 15.8801Z" fill="white"/>
<path d="M298.797 3.78956H300.296V17.2335H298.797V3.78956Z" fill="white"/>
<path d="M311.011 15.9564L319.838 5.14298H311.413V3.78262H321.823V5.05969L313.016 15.8731H321.927V17.2265H311.011V15.9495V15.9564ZM317.513 0.950861C317.513 1.51999 317.131 1.90172 316.562 1.90172C315.993 1.90172 315.612 1.51999 315.612 0.950861C315.612 0.381732 315.993 0 316.562 0C317.131 0 317.513 0.402554 317.513 0.950861Z" fill="white"/>
<path d="M343.751 11.5838C343.751 15.4081 341.746 17.4348 338.019 17.4348C334.293 17.4348 332.308 15.4081 332.308 11.5838V3.78956H333.807V11.5075C333.807 14.485 335.306 16.0813 338.04 16.0813C340.774 16.0813 342.294 14.485 342.294 11.5075V3.78956H343.751V11.5838Z" fill="white"/>
<path d="M359.796 17.2335H358.297V5.14298H353.682V3.78262H364.369V5.14298H359.796V17.2335Z" fill="white"/>
<path d="M382.904 11.1188H376.124V15.8801H384.362V17.2335H374.625V3.78956H384.362V5.14992H376.124V9.76541H382.904V11.1258V11.1188Z" fill="white"/>
<path d="M396.617 17.2335H395.118V3.78956H400.968C404.063 3.78956 405.666 5.1638 405.666 7.85675C405.666 10.0847 404.549 11.4173 402.363 11.8059L406.048 17.2335H404.264L400.801 11.91H396.61V17.2335H396.617ZM400.906 10.5497C403.071 10.5497 404.146 9.64048 404.146 7.85675C404.146 6.07301 403.071 5.14298 400.906 5.14298H396.617V10.5497H400.906Z" fill="white"/>
<path d="M416.526 3.78956H418.025V17.2335H416.526V3.78956Z" fill="white"/>
<path d="M429.406 3.78956H430.905V17.2335H429.406V3.78956Z" fill="white"/>
</g>
<defs>
<clipPath id="clip0_1_37">
<rect width="531" height="75" fill="white"/>
</clipPath>
</defs>
</svg>
