<svg xmlns="http://www.w3.org/2000/svg" viewBox="0 0 141.73 38.94"><defs><style>.cls-1{fill:#4c261a;}</style></defs><title>kruk</title><g id="Warstwa_2" data-name="Warstwa 2"><g id="Layer_1" data-name="Layer 1"><path class="cls-1" d="M26.48,22.31l2.09-2.09a.3.3,0,0,1,.42,0l2.09,2.09a.29.29,0,0,1,0,.42L29,24.81a.3.3,0,0,1-.42,0l-2.09-2.09a.3.3,0,0,1,0-.42"/><path class="cls-1" d="M8.84,0V.65A5.62,5.62,0,0,0,7.32.87a1,1,0,0,0-.83,1.06,2.19,2.19,0,0,0,.11.72c0,.19.15.49.27.83L12.1,17.11,16,6.9,14.26,2.54A3,3,0,0,0,12.82.91a5.75,5.75,0,0,0-1.7-.26V0h9.67V.65a6.57,6.57,0,0,0-1.9.23,1.17,1.17,0,0,0-.8,1.21,2.25,2.25,0,0,0,.08.57c0,.15.15.49.34,1l5.24,13.54L28.22,4.93a9.57,9.57,0,0,0,.53-1.86,3,3,0,0,0,.08-.76,1.39,1.39,0,0,0-.95-1.4A4.94,4.94,0,0,0,26.29.65V0h7.17V.65A4.85,4.85,0,0,0,32,1.1a3.19,3.19,0,0,0-1.37,1.78L26.74,13.62,25.3,17.75l-2.16,6.6h-.57l-1.44-4.21L16.8,9,11.23,24.35h-.53L8.12,16.81,5,8.35A49.69,49.69,0,0,0,2.31,1.94,2.79,2.79,0,0,0,0,.65V0Z"/><path class="cls-1" d="M38.94,23.49c1.46-.12,2.37-.36,2.73-.75a5.16,5.16,0,0,0,.52-2.93V4.17a3.65,3.65,0,0,0-.59-2.53A4.34,4.34,0,0,0,38.94.93V.25H49.24V.93a4.29,4.29,0,0,0-2.73.67,3.8,3.8,0,0,0-.63,2.57v7.4c2.26-1.9,4-3.52,5.46-4.83,2.53-2.41,3.8-4,3.8-4.67a.91.91,0,0,0-.63-1,5.6,5.6,0,0,0-1.82-.2V.25h9.46V.81a7.62,7.62,0,0,0-2.73.71,12.44,12.44,0,0,0-2.77,2.22l-6.89,6.73,8.43,9.11a41.28,41.28,0,0,0,3.21,3.17,5.31,5.31,0,0,0,2.49.79v.63h-11v-.67a7.35,7.35,0,0,0,2-.2.76.76,0,0,0,.51-.75,2.07,2.07,0,0,0-.36-.91,5.12,5.12,0,0,0-1.07-1.43L47.1,12.68l-1.23,1v6.53c0,1.35.2,2.18.63,2.58a5,5,0,0,0,2.65.67v.67H38.94Z"/><path class="cls-1" d="M87.15,23a6.3,6.3,0,0,1-1.38-1.23l-7.44-9.18a9.63,9.63,0,0,0,4.79-1.9,5.09,5.09,0,0,0,1.74-4.16,5.46,5.46,0,0,0-4-5.5A12.62,12.62,0,0,0,76.7.25h-11V.92a4.06,4.06,0,0,1,2.53.75,3.87,3.87,0,0,1,.55,2.49V19.81c0,1.51-.16,2.5-.52,2.89a4,4,0,0,1-2.57.79v.67H75.74v-.67a5.32,5.32,0,0,1-2.69-.67,3.77,3.77,0,0,1-.6-2.58V13.12l2-.08,2.22,2.85,6.41,8.27h5.82v-.67A4.49,4.49,0,0,1,87.15,23ZM76.7,11.38h0a27.27,27.27,0,0,1-4.24.39V2.87c0-.55.12-.87.36-1a4.19,4.19,0,0,1,1.86-.24,15,15,0,0,1,2,.16h0a8.36,8.36,0,0,1,1.66.48,4.25,4.25,0,0,1,2.58,4.27A4.42,4.42,0,0,1,78,11C77.69,11.1,77.21,11.26,76.7,11.38Z"/><path class="cls-1" d="M99.13.25V.93a5.09,5.09,0,0,0-2.73.67,3.76,3.76,0,0,0-.6,2.57V15.73a10.38,10.38,0,0,0,.75,4.43c1,1.9,2.77,2.89,5.46,2.89q4.46,0,5.94-3a11.3,11.3,0,0,0,.87-5.11V5.56q0-3-.71-3.68a4.08,4.08,0,0,0-2.69-.95V.25h8.39V.93a4,4,0,0,0-2.77,1c-.43.52-.63,1.74-.63,3.64V15a12.3,12.3,0,0,1-1.15,5.82c-1.42,2.58-4.08,3.88-8,3.88s-6.53-1.27-8-3.8a11.28,11.28,0,0,1-1.15-5.43V4.17c0-1.35-.2-2.18-.63-2.53A4.26,4.26,0,0,0,88.88.93V.25Z"/><path class="cls-1" d="M116.79,23.49c1.46-.12,2.38-.36,2.73-.75a5.15,5.15,0,0,0,.52-2.93V4.17a3.65,3.65,0,0,0-.6-2.53,4.32,4.32,0,0,0-2.65-.71V.25h10.29V.93a4.39,4.39,0,0,0-2.73.67,3.81,3.81,0,0,0-.63,2.57v7.4c2.26-1.9,4.08-3.52,5.46-4.83,2.53-2.41,3.8-4,3.8-4.67a.91.91,0,0,0-.63-1,5.61,5.61,0,0,0-1.82-.2V.25H140V.81a7.64,7.64,0,0,0-2.73.71,12.51,12.51,0,0,0-2.77,2.22l-6.85,6.73,8.4,9.11a42.34,42.34,0,0,0,3.2,3.17,5.34,5.34,0,0,0,2.49.79v.63h-11v-.67a7.38,7.38,0,0,0,2-.2.76.76,0,0,0,.51-.75,2.11,2.11,0,0,0-.35-.91,5.19,5.19,0,0,0-1.07-1.43l-6.85-7.52-1.23,1v6.53c0,1.35.2,2.18.63,2.58a5,5,0,0,0,2.65.67v.67H116.79Z"/><path class="cls-1" d="M43,30.41a.41.41,0,0,1,0,.07v7.39c0,.32.08.52.25.6a2.59,2.59,0,0,0,.95.15v.17H40.69v-.19a2,2,0,0,0,1-.2.86.86,0,0,0,.23-.72V32a1.06,1.06,0,0,0-.07-.45.32.32,0,0,0-.32-.15,1.35,1.35,0,0,0-.41.09l-.48.19v-.17l2.25-1.15h.07l0,0"/><path class="cls-1" d="M64.15,33.22a1.75,1.75,0,0,0,.38-1.14,1.45,1.45,0,0,0-.36-1,1.38,1.38,0,0,0-1.09-.41,1.29,1.29,0,0,0-.93.35,1.16,1.16,0,0,0-.37.87A1.59,1.59,0,0,0,62.21,33a4.94,4.94,0,0,0,1.14.93,4,4,0,0,0,.8-.68m.19,5a1.39,1.39,0,0,0,.36-1,1.52,1.52,0,0,0-.38-1.08,11.14,11.14,0,0,0-1.58-1.26,2,2,0,0,0-.77.86,2.48,2.48,0,0,0-.24,1,2,2,0,0,0,.43,1.34,1.55,1.55,0,0,0,2.17.11m-3-4.62a2.08,2.08,0,0,1-.46-1.3,1.74,1.74,0,0,1,.67-1.37,2.62,2.62,0,0,1,1.75-.56,2.25,2.25,0,0,1,1.57.53,1.64,1.64,0,0,1,.58,1.24,1.74,1.74,0,0,1-.6,1.29,5.69,5.69,0,0,1-1.11.75,8.18,8.18,0,0,1,1.5,1.35,2.14,2.14,0,0,1,.45,1.36A1.92,1.92,0,0,1,65,38.33a2.56,2.56,0,0,1-1.78.6,2.72,2.72,0,0,1-1.72-.56,1.76,1.76,0,0,1-.71-1.46,2.07,2.07,0,0,1,.5-1.37,5.55,5.55,0,0,1,1.13-.93,6.94,6.94,0,0,1-1.1-1"/><path class="cls-1" d="M82.3,31.63v4.26h-3Zm.41-1.27-3.93,5.53v.82h3.54V38.8h1V36.71h1.28v-.82H83.29V30.36Z"/><path class="cls-1" d="M103.67,37.58a9.28,9.28,0,0,0,.34-2.86,11.1,11.1,0,0,0-.2-2.38c-.25-1.11-.73-1.66-1.43-1.66s-1.17.57-1.43,1.7a11.42,11.42,0,0,0-.2,2.39A9.45,9.45,0,0,0,101,37q.39,1.56,1.47,1.56a1.25,1.25,0,0,0,1.24-1m.93-5.75a5.89,5.89,0,0,1,.62,2.75,6.91,6.91,0,0,1-.38,2.3,2.57,2.57,0,0,1-2.49,2,2.35,2.35,0,0,1-2-1.1,5.39,5.39,0,0,1-.83-3.19,6.14,6.14,0,0,1,.56-2.73,2.45,2.45,0,0,1,2.32-1.55,2.4,2.4,0,0,1,2.19,1.48"/></g></g></svg>